name ../VV_Laxity/vv_30.mot
datacolumns  10
datarows 23
range   14.00000000 14.22000000
cursor 1.0 1.0 0.0
keys m_key
wrap
enforce_loops no
enforce_constraints no
calc_derivatives -1.000000
event_color 0.000000 0.000000 0.000000
endheader
            time femur_r_force_vx femur_r_force_vy femur_r_force_vz femur_r_force_px femur_r_force_py femur_r_force_pz femur_r_torque_x femur_r_torque_y femur_r_torque_z 
     14.00000000       0.00000000       0.00000000       0.00000000      -0.03798529      -0.50443412       0.00000000      -0.19237539       0.11106799       0.00000000 
     14.01000000       0.00000000       0.00000000       0.00000000      -0.03798529      -0.50443412       0.00000000      -0.18606226       0.10742310       0.00000000 
     14.02000000       0.00000000       0.00000000       0.00000000      -0.03798529      -0.50443412       0.00000000      -0.17985218       0.10383770       0.00000000 
     14.03000000       0.00000000       0.00000000       0.00000000      -0.03798529      -0.50443412       0.00000000      -0.17374530       0.10031190       0.00000000 
     14.04000000       0.00000000       0.00000000       0.00000000      -0.03798529      -0.50443412       0.00000000      -0.16774178       0.09684576       0.00000000 
     14.05000000       0.00000000       0.00000000       0.00000000      -0.03798529      -0.50443412       0.00000000      -0.16184176       0.09343938       0.00000000 
     14.06000000       0.00000000       0.00000000       0.00000000      -0.03798529      -0.50443412       0.00000000      -0.15604539       0.09009285       0.00000000 
     14.07000000       0.00000000       0.00000000       0.00000000      -0.03798529      -0.50443412       0.00000000      -0.15035282       0.08680624       0.00000000 
     14.08000000       0.00000000       0.00000000       0.00000000      -0.03798529      -0.50443412       0.00000000      -0.14476418       0.08357964       0.00000000 
     14.09000000       0.00000000       0.00000000       0.00000000      -0.03798529      -0.50443412       0.00000000      -0.13927962       0.08041313       0.00000000 
     14.10000000       0.00000000       0.00000000       0.00000000      -0.03798529      -0.50443412       0.00000000      -0.13389928       0.07730678       0.00000000 
     14.11000000       0.00000000       0.00000000       0.00000000      -0.03798529      -0.50443412       0.00000000      -0.12862328       0.07426068       0.00000000 
     14.12000000       0.00000000       0.00000000       0.00000000      -0.03798529      -0.50443412       0.00000000      -0.12345176       0.07127490       0.00000000 
     14.13000000       0.00000000       0.00000000       0.00000000      -0.03798529      -0.50443412       0.00000000      -0.11838484       0.06834952       0.00000000 
     14.14000000       0.00000000       0.00000000       0.00000000      -0.03798529      -0.50443412       0.00000000      -0.11342265       0.06548460       0.00000000 
     14.15000000       0.00000000       0.00000000       0.00000000      -0.03798529      -0.50443412       0.00000000      -0.10856532       0.06268022       0.00000000 
     14.16000000       0.00000000       0.00000000       0.00000000      -0.03798529      -0.50443412       0.00000000      -0.10381297       0.05993645       0.00000000 
     14.17000000       0.00000000       0.00000000       0.00000000      -0.03798529      -0.50443412       0.00000000      -0.09916571       0.05725335       0.00000000 
     14.18000000       0.00000000       0.00000000       0.00000000      -0.03798529      -0.50443412       0.00000000      -0.09462366       0.05463100       0.00000000 
     14.19000000       0.00000000       0.00000000       0.00000000      -0.03798529      -0.50443412       0.00000000      -0.09018694       0.05206945       0.00000000 
     14.20000000       0.00000000       0.00000000       0.00000000      -0.03798529      -0.50443412       0.00000000      -0.08585565       0.04956878       0.00000000 
     14.21000000       0.00000000       0.00000000       0.00000000      -0.03798529      -0.50443412       0.00000000      -0.08162989       0.04712904       0.00000000 
     14.22000000       0.00000000       0.00000000       0.00000000      -0.03798529      -0.50443412       0.00000000      -0.07750979       0.04475030       0.00000000 
